<?xml version="1.0" standalone="no"?>
<!DOCTYPE svg PUBLIC "-//W3C//DTD SVG 20010904//EN"
 "http://www.w3.org/TR/2001/REC-SVG-20010904/DTD/svg10.dtd">
<svg version="1.0" xmlns="http://www.w3.org/2000/svg"
 width="260.000000pt" height="260.000000pt" viewBox="0 0 260.000000 260.000000"
 preserveAspectRatio="xMidYMid meet">
<metadata>
Created by potrace 1.11, written by Peter Selinger 2001-2013
</metadata>
<g transform="translate(0.000000,260.000000) scale(0.100000,-0.100000)"
fill="#000000" stroke="none">
<path d="M239 2523 c11 -16 72 -95 135 -178 l116 -150 0 -69 0 -68 -57 -62
c-215 -232 -329 -577 -294 -894 27 -244 112 -442 282 -654 l22 -27 -107 -177
c-59 -97 -106 -178 -104 -179 4 -4 1043 -8 1463 -6 l320 2 195 246 c107 136
197 250 198 255 2 4 -26 8 -63 8 -37 0 -65 3 -63 8 2 4 29 59 60 122 70 139
102 248 119 402 37 341 -87 687 -335 934 -232 231 -517 347 -841 343 l-120 -1
-3 86 -3 86 -470 0 -470 0 20 -27z m821 -744 c0 -594 -2 -673 -15 -683 -9 -6
-16 -20 -16 -31 0 -11 0 -66 0 -122 0 -57 4 -103 9 -103 5 0 10 52 11 117 0
64 3 118 6 121 3 3 5 -133 5 -301 l0 -307 578 0 577 0 -65 -31 c-68 -32 -75
-38 -171 -162 l-60 -77 -702 1 c-693 1 -703 0 -751 -20 -27 -12 -50 -20 -51
-19 -2 2 36 71 85 155 67 115 90 163 95 203 7 48 8 50 24 36 10 -9 20 -16 23
-16 4 0 6 122 7 271 0 150 3 274 6 277 3 3 5 -51 6 -119 2 -253 5 -309 14
-318 6 -5 21 -11 35 -14 20 -3 18 -5 -10 -6 -31 -2 -33 -3 -12 -11 12 -5 22
-15 21 -22 0 -10 -2 -10 -6 0 -5 13 -33 17 -33 4 0 -4 5 -13 12 -20 9 -9 9
-12 -2 -12 -7 0 -10 -3 -7 -6 4 -4 13 -1 22 6 11 9 15 9 15 1 0 -6 -10 -16
-22 -21 l-23 -9 23 0 c12 -1 21 -7 20 -13 -2 -8 7 -12 25 -11 28 2 39 -12 12
-15 -8 -1 -22 -3 -30 -4 -8 -1 -15 -6 -15 -11 0 -5 11 -6 24 -3 16 4 28 1 33
-8 7 -12 12 -11 31 4 12 10 18 21 13 24 -5 3 -11 -1 -15 -9 -3 -8 -11 -15 -17
-15 -9 0 -9 3 0 14 8 10 8 21 1 40 -8 23 -7 28 10 34 10 4 19 10 20 15 1 10
-24 36 -31 31 -3 -2 -6 10 -7 26 0 21 3 27 14 23 8 -3 21 0 29 7 13 11 14 10
9 -4 -3 -9 -10 -16 -14 -16 -12 0 -21 -28 -11 -34 5 -3 21 5 36 18 19 17 23
25 14 28 -32 12 4 20 38 10 24 -8 41 -8 47 -2 7 7 6 10 -2 10 -7 0 -12 10 -12
23 0 18 2 19 10 7 8 -13 10 -12 10 3 0 9 5 17 10 17 16 0 11 42 -7 63 -18 19
-17 19 5 6 12 -8 22 -22 22 -31 0 -10 4 -18 10 -18 5 0 6 -8 3 -17 -6 -16 -4
-16 9 -5 20 16 18 70 -3 83 -12 7 -11 9 3 9 22 0 25 65 22 515 -3 443 -3 466
-2 485 3 45 -2 58 -22 53 -23 -6 -26 -23 -8 -41 9 -9 9 -12 -1 -12 -11 0 -11
-3 0 -17 13 -15 12 -15 -11 -3 -22 12 -24 12 -12 -2 10 -13 10 -17 -3 -21 -15
-6 -39 24 -30 37 3 3 2 4 -2 1 -3 -3 -13 1 -21 8 -13 9 -14 9 -8 0 4 -7 3 -13
-3 -13 -5 0 -12 4 -16 10 -3 5 -13 7 -23 3 -9 -3 -4 6 12 19 25 21 27 26 13
31 -10 4 -17 2 -17 -4 0 -6 -4 -7 -10 -4 -5 3 -10 3 -10 -2 0 -4 -11 -9 -24
-9 -16 -1 -23 3 -20 11 6 14 -42 9 -62 -6 -7 -6 -16 -3 -24 6 -10 12 -16 13
-26 4 -11 -9 -14 -70 -15 -303 -1 -160 -3 -283 -6 -274 -3 11 -13 16 -31 15
-18 -1 -27 4 -30 16 -2 11 3 17 13 17 9 0 13 -4 10 -10 -3 -5 1 -10 9 -10 17
0 31 18 22 27 -3 4 -16 7 -29 8 l-22 2 -3 436 -3 437 30 0 c23 0 29 4 28 20
-1 10 -3 17 -6 15 -6 -7 -31 15 -31 27 0 6 7 4 17 -3 15 -13 15 -12 2 8 -7 12
-16 18 -19 13 -3 -5 -25 14 -50 42 -24 28 -62 59 -87 70 -24 10 -43 21 -43 23
0 3 142 5 315 5 l315 0 0 -671z m456 477 c373 -79 677 -350 793 -706 26 -78
38 -155 21 -127 -6 9 -8 22 -5 27 3 6 1 10 -4 10 -6 0 -11 5 -11 12 0 24 -33
97 -41 92 -5 -3 -6 2 -3 11 7 18 -12 45 -32 45 -8 0 -11 -6 -7 -17 4 -11 3
-14 -5 -9 -7 4 -12 12 -12 17 0 21 -81 148 -145 227 -166 207 -414 337 -700
368 -38 5 -60 10 -47 12 12 2 22 10 22 18 0 13 -15 15 -85 12 -61 -2 -85 0
-85 9 0 26 223 25 346 -1z m-189 -22 c-3 -3 -12 -4 -19 -1 -8 3 -5 6 6 6 11 1
17 -2 13 -5z m-856 -385 c-12 -10 -22 -20 -21 -24 0 -3 -11 -27 -24 -54 -20
-38 -22 -51 -13 -61 9 -10 9 -11 -1 -5 -18 10 -43 -25 -36 -49 4 -12 2 -16 -5
-12 -7 5 -19 -11 -31 -39 -11 -25 -27 -54 -37 -63 -15 -16 -16 -15 -10 13 21
89 187 368 196 328 2 -10 -6 -25 -18 -34z m483 -105 c3 -8 2 -12 -4 -9 -6 3
-10 10 -10 16 0 14 7 11 14 -7z m-654 -234 c0 -5 -4 -10 -10 -10 -5 0 -10 5
-10 10 0 6 5 10 10 10 6 0 10 -4 10 -10z m1110 -90 c61 -31 112 -109 145 -225
20 -72 51 -132 173 -335 112 -186 138 -214 162 -170 8 15 5 39 -14 102 -13 46
-31 144 -41 218 -9 74 -19 151 -22 170 -3 22 -2 31 4 25 5 -5 17 -65 26 -132
12 -95 24 -140 54 -209 20 -47 44 -89 52 -92 9 -3 26 8 43 28 22 28 28 44 28
84 0 48 0 49 20 31 11 -10 20 -28 20 -39 1 -15 8 -9 26 24 33 61 19 10 -19
-65 -62 -124 -180 -265 -223 -265 -35 0 -53 10 -47 26 8 21 -4 57 -27 87 -20
25 -23 26 -45 11 -13 -9 -26 -29 -29 -49 -4 -19 -11 -35 -17 -35 -6 0 -5 8 2
22 10 18 9 20 -6 15 -11 -5 -15 -3 -12 5 2 7 -4 29 -14 48 -10 19 -20 67 -24
105 -14 161 -16 181 -26 213 -8 23 -17 32 -32 32 -23 0 -27 -9 -72 -133 -9
-26 -28 -55 -42 -64 -15 -10 -20 -19 -13 -23 6 -4 -1 -17 -20 -33 -32 -29 -38
-46 -17 -48 6 -1 21 -3 32 -4 11 -2 37 -5 57 -7 21 -1 38 -7 38 -11 0 -5 5 -5
10 -2 9 5 12 -1 9 -21 0 -4 5 -11 13 -15 8 -6 9 -9 1 -9 -13 0 10 -55 28 -65
5 -4 7 -11 3 -16 -3 -6 18 -9 55 -8 34 1 64 0 66 -3 7 -6 -264 -18 -422 -18
l-123 0 1 153 c0 83 3 146 6 140 11 -28 134 0 168 37 22 25 33 78 24 115 -8
28 -7 29 7 10 8 -11 19 -36 24 -57 10 -35 12 -37 34 -26 13 5 37 33 52 62 27
48 28 57 26 158 -1 59 -6 118 -11 131 -13 33 -59 85 -105 118 -46 34 -41 37
14 9z m747 -252 c-2 -24 -4 -7 -4 37 0 44 2 63 4 43 2 -21 2 -57 0 -80z
m-1500 -50 c-3 -7 -5 -2 -5 12 0 14 2 19 5 13 2 -7 2 -19 0 -25z m1490 -45
c-3 -10 -5 -4 -5 12 0 17 2 24 5 18 2 -7 2 -21 0 -30z m-10 -45 c-3 -8 -6 -5
-6 6 -1 11 2 17 5 13 3 -3 4 -12 1 -19z m-10 -40 c-3 -8 -6 -5 -6 6 -1 11 2
17 5 13 3 -3 4 -12 1 -19z m-1267 -123 c14 -19 14 -19 -2 -6 -10 7 -18 18 -18
24 0 6 1 8 3 6 1 -2 9 -13 17 -24z m-160 5 c0 -5 -5 -10 -11 -10 -5 0 -7 5 -4
10 3 6 8 10 11 10 2 0 4 -4 4 -10z m204 -25 c4 -11 -2 -15 -22 -14 -17 1 -20
3 -9 6 9 2 15 9 12 14 -4 5 -2 9 3 9 6 0 12 -7 16 -15z m-191 -158 c3 -8 -1
-14 -9 -14 -15 0 -18 9 -7 20 9 9 10 9 16 -6z m32 -107 c3 -5 -1 -10 -10 -10
-9 0 -13 5 -10 10 3 6 8 10 10 10 2 0 7 -4 10 -10z m1233 -399 c-7 -11 -16
-17 -21 -14 -4 3 0 11 10 19 24 18 25 17 11 -5z"/>
<path d="M1036 1385 c-9 -26 -7 -32 5 -12 6 10 9 21 6 23 -2 3 -7 -2 -11 -11z"/>
<path d="M1030 1300 c0 -5 5 -10 10 -10 6 0 10 5 10 10 0 6 -4 10 -10 10 -5 0
-10 -4 -10 -10z"/>
<path d="M1030 1265 c0 -8 5 -15 10 -15 6 0 10 7 10 15 0 8 -4 15 -10 15 -5 0
-10 -7 -10 -15z"/>
<path d="M1035 1198 c1 -24 -2 -55 -6 -70 -8 -30 5 -39 15 -12 9 23 7 97 -3
112 -4 8 -7 -4 -6 -30z"/>
<path d="M1022 687 c2 -43 5 -54 14 -46 14 12 11 76 -5 92 -7 7 -10 -7 -9 -46z"/>
<path d="M941 566 c9 -10 59 -14 54 -5 -4 5 -18 9 -32 9 -15 0 -24 -2 -22 -4z"/>
<path d="M840 540 c0 -5 4 -10 9 -10 6 0 13 5 16 10 3 6 -1 10 -9 10 -9 0 -16
-4 -16 -10z"/>
<path d="M830 506 c0 -2 7 -7 16 -10 8 -3 12 -2 9 4 -6 10 -25 14 -25 6z"/>
<path d="M820 480 c0 -5 5 -10 10 -10 6 0 10 5 10 10 0 6 -4 10 -10 10 -5 0
-10 -4 -10 -10z"/>
</g>
</svg>
